<?xml version="1.0" encoding="utf-8"?>
<svg viewBox="0 0 319 330" style="" xmlns="http://www.w3.org/2000/svg">
  <g>
    <path opacity="1.000000" stroke="none" d="M 96.75 170.888 C 96.812 174.765 94.104 174.801 93.141 174.808 C 88.335 174.842 83.718 174.79 79.558 174.72 C 75.595 174.653 76.295 171.53 76.285 170.663 C 76.199 163.511 76.342 156.308 76.164 149.161 C 76.152 148.688 76.261 145.411 79.532 145.433 C 82.17 145.45 89.28 145.504 92.965 145.457 C 93.665 145.448 96.173 145.437 96.385 148.917 M 93.081 171.038 C 93.081 169.677 93.081 154.903 93.081 149.098 C 88.253 149.098 83.898 149.098 79.592 149.098 C 79.592 156.652 79.592 163.844 79.592 171.038 C 84.208 171.038 88.453 171.038 93.081 171.038 Z" style="stroke-linecap: round; stroke-miterlimit: 6.31; fill: rgb(255, 255, 255);"/>
    <path opacity="1.000000" stroke="none" d="M 160.985 71.212 C 160.985 61.772 161.026 51.903 161.026 42.472 C 161.593 39.744 164.706 40.358 164.654 42.592 C 164.492 49.583 164.808 69.382 164.808 71.458 C 176.253 71.458 190.834 71.416 201.785 71.512 C 205.152 71.542 205.32 71.515 205.39 76.195 C 205.526 85.32 205.849 97.485 205.849 107.136 C 218.814 107.136 231.419 107.136 244.023 107.136 C 252.87 107.136 252.946 107.211 252.951 116.079 C 252.953 119.711 252.951 123.343 252.951 127.464 C 256.644 127.464 259.928 127.464 263.212 127.464 C 270.785 127.466 271.33 128.022 271.329 135.799 C 271.328 152.79 271.41 169.782 271.248 186.772 C 271.214 190.363 272.166 192.811 274.889 195.383 C 284.444 204.411 293.671 213.79 302.854 223.199 C 304.079 224.454 304.945 226.646 304.955 228.409 C 305.088 253.729 305.01 279.051 305.086 304.372 C 305.098 308.197 303.453 309.9 299.741 309.882 C 295.41 309.86 115.164 309.868 29.372 309.871 C 20.964 309.871 20.952 309.863 20.952 301.599 C 20.952 277.611 20.875 253.622 21.08 229.635 C 21.1 227.337 22.332 224.522 23.94 222.851 C 33.062 213.372 42.587 204.28 51.674 194.769 C 53.368 192.997 54.487 189.926 54.521 187.436 C 54.769 169.62 54.734 151.799 54.63 133.98 C 54.603 129.38 56.27 127.144 61.083 127.412 C 64.884 127.624 68.707 127.455 73.053 127.455 C 73.053 122.574 73.208 117.946 73.008 113.334 C 72.814 108.834 74.693 107.035 79.198 107.082 C 92.658 107.223 106.122 107.133 120.144 107.133 C 120.144 97.392 120.016 85.453 120.237 76.024 C 120.286 73.904 120.223 71.996 123.381 71.296 M 190.351 193.005 C 190.331 189.293 192.009 187.446 195.794 187.525 C 199.125 187.595 202.464 187.673 205.789 187.522 C 210.474 187.309 211.7 188.786 211.664 193.583 C 211.476 218.579 212.042 274.883 212.042 277.641 C 218.126 277.641 223.372 277.641 228.958 277.641 C 228.958 275.487 228.911 225.212 228.974 201.881 C 229.017 185.861 226.843 187.692 243.405 187.534 C 249.942 187.472 250.655 188.318 250.656 195.147 C 250.662 220.311 250.657 275.227 250.657 277.682 C 256.433 277.682 261.832 277.682 267.041 277.682 C 267.041 228.785 267.041 180.195 267.041 131.711 C 197.443 131.711 128.219 131.711 58.934 131.711 C 58.934 180.615 58.934 229.157 58.934 277.733 C 64.54 277.733 69.804 277.733 75.329 277.733 C 75.329 276 75.391 220.389 75.281 194.059 C 75.262 189.419 76.901 187.185 81.708 187.522 C 84.362 187.707 87.039 187.55 89.705 187.564 C 96.464 187.599 97.038 188.177 97.039 195.01 C 97.043 222.497 97.041 249.985 97.041 277.674 C 102.789 277.674 108.172 277.674 113.953 277.674 C 113.953 266.385 113.997 209.789 113.926 192.474 C 113.912 189.003 115.672 187.65 118.804 187.578 C 122.136 187.501 125.47 187.523 128.802 187.538 C 134.696 187.566 135.64 188.502 135.646 194.592 C 135.668 214.923 135.653 270.189 135.653 277.74 C 141.204 277.74 146.446 277.74 152.09 277.74 C 152.09 275.95 152.035 225.71 152.11 202.213 C 152.162 185.917 149.832 187.591 167.273 187.579 C 173.003 187.575 173.902 188.524 173.906 194.289 C 173.923 220.453 173.915 276.008 173.915 277.71 C 179.618 277.71 184.86 277.71 190.369 277.71 M 288.745 306.029 C 288.745 297.629 288.745 289.755 288.745 282.009 C 204.584 282.009 120.817 282.009 36.841 282.009 C 36.841 289.988 36.841 297.72 36.841 306.029 M 248.828 127.501 C 248.828 121.684 248.828 116.46 248.828 111.313 C 191.511 111.313 134.497 111.313 77.246 111.313 C 77.246 116.874 77.246 122.077 77.246 127.505 M 201.713 107.134 C 201.713 96.382 201.713 86.169 201.713 76.035 C 175.708 76.035 150.016 76.035 124.292 76.035 C 124.292 86.526 124.292 96.734 124.292 107.134 M 24.675 302.423 C 24.69 303.255 24.387 305.018 25.804 305.593 C 28.198 306.565 32.838 306.083 32.838 306.083 C 32.838 306.083 32.635 289.723 32.656 284.961 C 32.684 278.656 33.33 278.008 39.447 277.987 C 44.41 277.97 49.373 277.984 54.646 277.984 C 54.646 251.233 54.646 224.876 54.646 198.518 C 54.253 198.216 53.861 197.914 53.469 197.612 C 44.803 206.568 36.031 215.426 27.563 224.566 C 25.974 226.28 24.81 229.115 24.79 231.444 C 24.591 254.774 24.672 278.106 24.675 302.423 M 271.505 277.982 C 276.886 277.982 281.869 278.18 286.828 277.924 C 291.335 277.691 293.171 279.369 293.016 283.974 C 292.771 291.222 292.951 298.484 292.951 305.721 C 296.058 305.721 298.47 305.721 301.074 305.721 C 301.175 304.623 301.311 303.825 301.312 303.027 C 301.327 278.738 301.385 254.447 301.219 230.159 C 301.206 228.311 299.99 226.075 298.642 224.696 C 290.269 216.133 280.758 206.223 271.542 197.281 M 131.697 191.724 C 126.927 191.724 122.518 191.724 117.915 191.724 C 117.915 220.574 117.915 249.107 117.915 277.687 C 122.595 277.687 126.993 277.687 131.702 277.687 M 170.076 191.726 C 165.068 191.726 160.666 191.726 156.142 191.726 C 156.142 220.547 156.142 249.069 156.142 277.785 C 160.788 277.785 165.221 277.785 170.076 277.785 M 79.258 277.641 C 84.048 277.641 88.419 277.641 92.839 277.641 C 92.839 248.893 92.839 220.34 92.839 191.602 C 88.327 191.602 84.056 191.602 79.258 191.602 M 208.143 191.429 C 204.406 191.429 198.087 191.446 194.536 191.446 C 194.536 220.779 194.536 249.26 194.536 277.655 C 199.443 277.655 203.847 277.655 208.353 277.655 M 246.781 277.784 C 246.781 264.947 246.783 207.526 246.783 191.696 C 241.973 191.696 237.575 191.696 232.928 191.696 C 232.928 220.517 232.928 249.068 232.928 277.784 C 237.615 277.784 242.04 277.784 246.781 277.784 Z" style="fill: rgb(255, 255, 255);"/>
    <path opacity="1.000000" stroke="none" d="M 133.981 171.217 C 134.043 175.094 131.335 175.13 130.372 175.137 C 125.566 175.171 120.949 175.119 116.789 175.049 C 112.826 174.982 113.526 171.859 113.516 170.992 C 113.43 163.84 113.573 156.637 113.395 149.49 C 113.383 149.017 113.492 145.74 116.763 145.762 C 119.401 145.779 126.511 145.833 130.196 145.786 C 130.896 145.777 133.404 145.766 133.616 149.246 M 130.312 171.367 C 130.312 170.006 130.312 155.232 130.312 149.427 C 125.484 149.427 121.129 149.427 116.823 149.427 C 116.823 156.981 116.823 164.173 116.823 171.367 C 121.439 171.367 125.684 171.367 130.312 171.367 Z" style="stroke-linecap: round; stroke-miterlimit: 6.31; fill: rgb(255, 255, 255);"/>
    <path opacity="1.000000" stroke="none" d="M 172.179 171.114 C 172.241 174.991 169.533 175.027 168.57 175.034 C 163.764 175.068 159.147 175.016 154.987 174.946 C 151.024 174.879 151.724 171.756 151.714 170.889 C 151.628 163.737 151.771 156.534 151.593 149.387 C 151.581 148.914 151.69 145.637 154.961 145.659 C 157.599 145.676 164.709 145.73 168.394 145.683 C 169.094 145.674 171.602 145.663 171.814 149.143 M 168.51 171.264 C 168.51 169.903 168.51 155.129 168.51 149.324 C 163.682 149.324 159.327 149.324 155.021 149.324 C 155.021 156.878 155.021 164.07 155.021 171.264 C 159.637 171.264 163.882 171.264 168.51 171.264 Z" style="stroke-linecap: round; stroke-miterlimit: 6.31; fill: rgb(255, 255, 255);"/>
    <path opacity="1.000000" stroke="none" d="M 210.82 171.022 C 210.882 174.899 208.174 174.935 207.211 174.942 C 202.405 174.976 197.788 174.924 193.628 174.854 C 189.665 174.787 190.365 171.664 190.355 170.797 C 190.269 163.645 190.412 156.442 190.234 149.295 C 190.222 148.822 190.331 145.545 193.602 145.567 C 196.24 145.584 203.35 145.638 207.035 145.591 C 207.735 145.582 210.243 145.571 210.455 149.051 M 207.151 171.172 C 207.151 169.811 207.151 155.037 207.151 149.232 C 202.323 149.232 197.968 149.232 193.662 149.232 C 193.662 156.786 193.662 163.978 193.662 171.172 C 198.278 171.172 202.523 171.172 207.151 171.172 Z" style="stroke-linecap: round; stroke-miterlimit: 6.31; fill: rgb(255, 255, 255);"/>
    <path opacity="1.000000" stroke="none" d="M 249.345 171.286 C 249.407 175.163 246.699 175.199 245.736 175.206 C 240.93 175.24 236.313 175.188 232.153 175.118 C 228.19 175.051 228.89 171.928 228.88 171.061 C 228.794 163.909 228.937 156.706 228.759 149.559 C 228.747 149.086 228.856 145.809 232.127 145.831 C 234.765 145.848 241.875 145.902 245.56 145.855 C 246.26 145.846 248.768 145.835 248.98 149.315 M 245.676 171.436 C 245.676 170.075 245.676 155.301 245.676 149.496 C 240.848 149.496 236.493 149.496 232.187 149.496 C 232.187 157.05 232.187 164.242 232.187 171.436 C 236.803 171.436 241.048 171.436 245.676 171.436 Z" style="stroke-linecap: round; stroke-miterlimit: 6.31; fill: rgb(255, 255, 255);"/>
  </g>
</svg>